<svg id="Layer_1" data-name="Layer 1" xmlns="http://www.w3.org/2000/svg" viewBox="0 0 76.28 119.69"><defs><style>.cls-1{fill:#60605f;}</style></defs><g id="Layer_2" data-name="Layer 2"><g id="Layer_1-2" data-name="Layer 1-2"><path class="cls-1" d="M19.82,63.24V27.74a8.87,8.87,0,1,1,17.72-.8c0,.18,0,.36,0,.54V47.53a9,9,0,0,1,12.06,4.06,8.87,8.87,0,0,1,.8,2.41,8.94,8.94,0,0,1,12.05,3.83,9,9,0,0,1,.85,2.47,23.56,23.56,0,0,1,3-.77,8.83,8.83,0,0,1,10,8.92c0,4.53,0,9,0,13.58,0,5,.12,10.07,0,15.1-.14,8.68-4,15.27-11.49,19.68a20.5,20.5,0,0,1-10.5,2.83c-6.69,0-13.39.12-20.08,0a21.64,21.64,0,0,1-17.25-9,23.49,23.49,0,0,1-4-9c-1.1-4.51-2.39-9-3.64-13.45a128.26,128.26,0,0,0-5.73-16.5,36.52,36.52,0,0,0-2.35-4.83,8.87,8.87,0,0,1,15.15-9.22C17.5,59.42,18.58,61.23,19.82,63.24Zm4.84-8.53h0V81.87a2.48,2.48,0,0,1-2.27,2.67h-.2a2.43,2.43,0,0,1-2.38-2.48,1.48,1.48,0,0,1,0-.21v-5a4.86,4.86,0,0,0-.19-1.26,59.4,59.4,0,0,0-7.34-15.45,4.08,4.08,0,0,0-4.66-1.6,3.89,3.89,0,0,0-2.7,4.24,9.64,9.64,0,0,0,1.16,2.77,104.27,104.27,0,0,1,7.1,18.54c1.53,5.06,2.87,10.18,4.25,15.29a24.2,24.2,0,0,0,2.23,6.4c3.51,5.82,8.65,8.91,15.48,9q9.52.08,19,0a17.51,17.51,0,0,0,17.34-16.9c.13-5,0-10,0-14.92V68.42a4,4,0,0,0-8.09,0v6a2.35,2.35,0,0,1-2.29,2.42,1.83,1.83,0,0,1-.47,0,2.42,2.42,0,0,1-2-2.49V61.78a4,4,0,0,0-8.06.08v8.28a2.38,2.38,0,0,1-2.33,2.45,2.47,2.47,0,0,1-2.5-2.75V55.7A4.09,4.09,0,0,0,43.92,52a3.81,3.81,0,0,0-4.33,0,3.89,3.89,0,0,0-2,3.58V69.8a2.37,2.37,0,0,1-2.28,2.44h-.14a2.4,2.4,0,0,1-2.4-2.42V27.34a4,4,0,0,0-8.06.37,1.48,1.48,0,0,0,0,.21Q24.65,41.29,24.66,54.71Z" transform="translate(-0.03 0)"/><path class="cls-1" d="M.7,27.76A27.51,27.51,0,0,1,7.62,9.68,27.54,27.54,0,0,1,24.05.41a27.06,27.06,0,0,1,12.55.77c.57.17,1.07.58,1.64.79.76.28,1.59.38,2.31.73A27.57,27.57,0,0,1,55.43,19.8a27.39,27.39,0,0,1-1,19.22,27.22,27.22,0,0,1-3.81,6.39,2.06,2.06,0,0,1-2.87.52l-.13-.1a2,2,0,0,1-.55-2.78l.18-.22a24.45,24.45,0,0,0,3.65-6.47,23.12,23.12,0,0,0,.92-13.42A23,23,0,0,0,42.51,8.77a22.86,22.86,0,0,0-19-3.87A23.1,23.1,0,0,0,7.87,16.66a23.78,23.78,0,0,0,3.06,27.11,19.77,19.77,0,0,0,5.14,4.32,2.22,2.22,0,0,1,1.23,2.4,2,2,0,0,1-1.53,1.68,2.37,2.37,0,0,1-2-.49,27.65,27.65,0,0,1-7.39-6.83A28.33,28.33,0,0,1,.7,27.76Z" transform="translate(-0.03 0)"/><path class="cls-1" d="M28.73,9.68A18.72,18.72,0,0,1,47,24.47a18.32,18.32,0,0,1-1.59,12.32,2.28,2.28,0,0,1-2.94,1.3L42.28,38a2.24,2.24,0,0,1-1.13-3c0-.08.08-.16.13-.24A14.13,14.13,0,0,0,35.43,16a13.58,13.58,0,0,0-9.32-1.51,14.38,14.38,0,0,0-11,10,13.09,13.09,0,0,0,.14,8c.26.78.58,1.55.91,2.31a2.35,2.35,0,0,1-.82,3,2.16,2.16,0,0,1-3-.5,2.38,2.38,0,0,1-.18-.3,20.37,20.37,0,0,1-1.65-4.41A18.56,18.56,0,0,1,17,13.83,18.32,18.32,0,0,1,28.73,9.68Z" transform="translate(-0.03 0)"/></g></g></svg>